<svg width="73" height="73" viewBox="0 0 73 73" fill="none" xmlns="http://www.w3.org/2000/svg">
<path d="M57.0312 38.7812C54.0132 38.7812 51.3555 40.2663 49.6948 42.5248L38.852 36.5L49.6948 30.4752C51.3555 32.7337 54.0109 34.2188 57.0312 34.2188C62.0705 34.2188 66.1562 30.133 66.1562 25.0938C66.1562 20.0545 62.0705 15.9688 57.0312 15.9688C51.992 15.9688 47.9062 20.0545 47.9062 25.0938C47.9062 26.2937 48.1526 27.4343 48.5724 28.486L37.6406 34.5609V22.6984C42.1347 22.1304 45.625 18.3367 45.625 13.6875C45.625 8.64822 41.5393 4.5625 36.5 4.5625C31.4607 4.5625 27.375 8.64822 27.375 13.6875C27.375 18.3367 30.8653 22.1304 35.3594 22.6984V34.5609L24.4253 28.486C24.8474 27.4343 25.0938 26.2937 25.0938 25.0938C25.0938 20.0545 21.008 15.9688 15.9688 15.9688C10.9295 15.9688 6.84375 20.0545 6.84375 25.0938C6.84375 30.133 10.9295 34.2188 15.9688 34.2188C18.9891 34.2188 21.6445 32.7337 23.3052 30.4752L34.148 36.5L23.303 42.5248C21.6445 40.2663 18.9891 38.7812 15.9688 38.7812C10.9295 38.7812 6.84375 42.867 6.84375 47.9062C6.84375 52.9455 10.9295 57.0312 15.9688 57.0312C21.008 57.0312 25.0938 52.9455 25.0938 47.9062C25.0938 46.7063 24.8474 45.5657 24.4253 44.514L35.3594 38.4391V50.3016C30.8653 50.8696 27.375 54.6633 27.375 59.3125C27.375 64.3518 31.4607 68.4375 36.5 68.4375C41.5393 68.4375 45.625 64.3518 45.625 59.3125C45.625 54.6633 42.1347 50.8696 37.6406 50.3016V38.4391L48.5747 44.514C48.1526 45.5634 47.9062 46.704 47.9062 47.9062C47.9062 52.9455 51.992 57.0312 57.0312 57.0312C62.0705 57.0312 66.1562 52.9455 66.1562 47.9062C66.1562 42.867 62.0705 38.7812 57.0312 38.7812ZM57.0312 18.25C60.8044 18.25 63.875 21.3206 63.875 25.0938C63.875 28.8669 60.8044 31.9375 57.0312 31.9375C53.2581 31.9375 50.1875 28.8669 50.1875 25.0938C50.1875 21.3206 53.2581 18.25 57.0312 18.25ZM15.9688 31.9375C12.1956 31.9375 9.125 28.8669 9.125 25.0938C9.125 21.3206 12.1956 18.25 15.9688 18.25C19.7419 18.25 22.8125 21.3206 22.8125 25.0938C22.8125 28.8669 19.7419 31.9375 15.9688 31.9375ZM15.9688 54.75C12.1956 54.75 9.125 51.6794 9.125 47.9062C9.125 44.1331 12.1956 41.0625 15.9688 41.0625C19.7419 41.0625 22.8125 44.1331 22.8125 47.9062C22.8125 51.6794 19.7419 54.75 15.9688 54.75ZM29.6562 13.6875C29.6562 9.91431 32.7268 6.84375 36.5 6.84375C40.2732 6.84375 43.3438 9.91431 43.3438 13.6875C43.3438 17.4607 40.2732 20.5312 36.5 20.5312C32.7268 20.5312 29.6562 17.4607 29.6562 13.6875ZM43.3438 59.3125C43.3438 63.0857 40.2732 66.1562 36.5 66.1562C32.7268 66.1562 29.6562 63.0857 29.6562 59.3125C29.6562 55.5393 32.7268 52.4688 36.5 52.4688C40.2732 52.4688 43.3438 55.5393 43.3438 59.3125ZM57.0312 54.75C53.2581 54.75 50.1875 51.6794 50.1875 47.9062C50.1875 44.1331 53.2581 41.0625 57.0312 41.0625C60.8044 41.0625 63.875 44.1331 63.875 47.9062C63.875 51.6794 60.8044 54.75 57.0312 54.75Z" fill="#3A3A3A"/>
</svg>
