<svg width="56" height="56" viewBox="0 0 56 56" fill="none" xmlns="http://www.w3.org/2000/svg">
    <path opacity="0.4"
        d="M27.9996 32.6667H30.3329C32.8996 32.6667 34.9996 30.5667 34.9996 28V4.66667H13.9995C10.4995 4.66667 7.44287 6.60332 5.8562 9.44998"
        stroke="#292D32" stroke-width="3" stroke-linecap="round" stroke-linejoin="round" />
    <path
        d="M4.66675 39.6667C4.66675 43.54 7.79341 46.6667 11.6667 46.6667H14.0001C14.0001 44.1 16.1001 42 18.6667 42C21.2334 42 23.3334 44.1 23.3334 46.6667H32.6667C32.6667 44.1 34.7667 42 37.3334 42C39.9001 42 42.0001 44.1 42.0001 46.6667H44.3334C48.2067 46.6667 51.3334 43.54 51.3334 39.6667V32.6667H44.3334C43.0501 32.6667 42.0001 31.6167 42.0001 30.3333V23.3333C42.0001 22.05 43.0501 21 44.3334 21H47.3434L43.3534 14.0234C42.5134 12.5767 40.9734 11.6667 39.2934 11.6667H35.0001V28C35.0001 30.5667 32.9001 32.6667 30.3334 32.6667H28.0001"
        stroke="#3A3A3A" stroke-width="3" stroke-linecap="round" stroke-linejoin="round" />
    <path
        d="M18.6667 51.3333C21.244 51.3333 23.3333 49.2441 23.3333 46.6667C23.3333 44.0893 21.244 42 18.6667 42C16.0893 42 14 44.0893 14 46.6667C14 49.2441 16.0893 51.3333 18.6667 51.3333Z"
        stroke="#3A3A3A" stroke-width="3" stroke-linecap="round" stroke-linejoin="round" />
    <path
        d="M37.3334 51.3333C39.9108 51.3333 42.0001 49.2441 42.0001 46.6667C42.0001 44.0893 39.9108 42 37.3334 42C34.756 42 32.6667 44.0893 32.6667 46.6667C32.6667 49.2441 34.756 51.3333 37.3334 51.3333Z"
        stroke="#3A3A3A" stroke-width="3" stroke-linecap="round" stroke-linejoin="round" />
    <path
        d="M51.3333 28V32.6667H44.3333C43.05 32.6667 42 31.6167 42 30.3333V23.3333C42 22.05 43.05 21 44.3333 21H47.3433L51.3333 28Z"
        stroke="#3A3A3A" stroke-width="3" stroke-linecap="round" stroke-linejoin="round" />
    <path d="M4.66675 18.6667H18.6667" stroke="#3A3A3A" stroke-width="3" stroke-linecap="round"
        stroke-linejoin="round" />
    <path d="M4.66675 25.6667H14.0001" stroke="#3A3A3A" stroke-width="3" stroke-linecap="round"
        stroke-linejoin="round" />
    <path d="M4.66675 32.6667H9.33341" stroke="#3A3A3A" stroke-width="3" stroke-linecap="round"
        stroke-linejoin="round" />
</svg>