<svg width="58" height="58" viewBox="0 0 58 58" fill="none" xmlns="http://www.w3.org/2000/svg">
<g clip-path="url(#clip0_24_29)">
<path d="M29.2501 7.88519e-06C30.1999 7.88519e-06 31.1351 0.0616329 32.0051 0.206633C32.862 0.318909 33.7074 0.5057 34.5318 0.764883C35.3583 1.01501 36.1666 1.32676 36.975 1.71826C37.7616 2.09163 38.57 2.54838 39.3784 3.04501C40.745 3.91501 42.0899 4.61826 43.4601 5.18013C46.1577 6.25978 49.0101 6.90222 51.91 7.08326C53.3818 7.18838 54.8934 7.25001 56.4666 7.25001V21.75C56.4666 24.505 56.115 27.115 55.4118 29.6018C54.7362 32.053 53.7763 34.4169 52.5516 36.6451C51.3321 38.8703 49.8892 40.9654 48.2451 42.8983C46.5759 44.875 44.7685 46.7308 42.8366 48.4518C40.8792 50.1778 38.8175 51.7818 36.6633 53.2549C34.51 54.7484 32.335 56.1368 30.16 57.3983L29.29 57.9166L28.42 57.3983C26.1841 56.1038 24.0002 54.7216 21.8733 53.2549C19.707 51.7984 17.6442 50.1935 15.6999 48.4518C13.7692 46.7308 11.963 44.8749 10.295 42.8983C8.65541 40.9573 7.20601 38.8633 5.96677 36.6451C4.76302 34.407 3.80411 32.0455 3.10665 29.6018C2.39894 27.0452 2.05001 24.4027 2.0699 21.75V7.25001C3.64677 7.25001 5.1584 7.18838 6.63015 7.08326C8.07892 6.98263 9.51831 6.77544 10.9366 6.46338C12.325 6.15163 13.7134 5.73838 15.08 5.18013C16.4981 4.6078 17.8578 3.90007 19.14 3.06676C20.735 2.03001 22.3518 1.26513 23.9468 0.761258C25.6645 0.23466 27.4536 -0.0221463 29.2501 7.88519e-06ZM52.8199 10.8134C50.0759 10.6802 47.3574 10.2215 44.7216 9.44676C42.0998 8.66468 39.6026 7.5137 37.3049 6.02838C36.1131 5.24609 34.8188 4.63248 33.4588 4.20501C32.1002 3.79442 30.6874 3.59155 29.2683 3.60326C27.8386 3.59401 26.4154 3.7968 25.0451 4.20501C23.6831 4.61859 22.3905 5.23315 21.2099 6.02838C18.9082 7.5218 16.4045 8.67783 13.775 9.46126C11.2049 10.208 8.51515 10.6648 5.6949 10.8315V21.7681C5.6949 24.1715 6.00665 26.4698 6.63015 28.6846C7.26534 30.8803 8.14063 32.9992 9.24015 35.003C10.3528 37.0277 11.6643 38.9366 13.1551 40.7015C14.6668 42.4814 16.2799 44.138 18.0199 45.7113C19.7599 47.2881 21.5833 48.7381 23.49 50.083C25.4149 51.4315 27.3434 52.6531 29.2683 53.7696C31.2392 52.6222 33.161 51.3922 35.0284 50.083C36.9477 48.7424 38.7808 47.2822 40.5166 45.7113C42.2566 44.138 43.8734 42.4814 45.385 40.7015C46.876 38.9367 48.1875 37.0278 49.3 35.003C50.3947 33.0017 51.257 30.8818 51.8701 28.6846C52.5126 26.4357 52.8324 24.107 52.8199 21.7681V10.8134Z" fill="#3A3A3A"/>
<path fill-rule="evenodd" clip-rule="evenodd" d="M42.7642 17.0701L41.1692 15.6999L39.6975 15.8267L23.8925 34.4882L18.5094 26.8032L17.0594 26.5567L15.381 27.7566L15.1309 29.2066L22.051 39.0884L22.8376 39.5234L24.4942 39.6249L25.3425 39.2551L42.8694 18.5382L42.7642 17.0701Z" fill="#3A3A3A"/>
</g>
<defs>
<clipPath id="clip0_24_29">
<rect width="58" height="58" fill="white"/>
</clipPath>
</defs>
</svg>
