<svg width="40" height="40" viewBox="0 0 40 40" fill="none" xmlns="http://www.w3.org/2000/svg">
    <path
        d="M31.6667 21.6666H8.33341C7.89139 21.6666 7.46746 21.4911 7.1549 21.1785C6.84234 20.8659 6.66675 20.442 6.66675 20C6.66675 19.558 6.84234 19.134 7.1549 18.8215C7.46746 18.5089 7.89139 18.3333 8.33341 18.3333H31.6667C32.1088 18.3333 32.5327 18.5089 32.8453 18.8215C33.1578 19.134 33.3334 19.558 33.3334 20C33.3334 20.442 33.1578 20.8659 32.8453 21.1785C32.5327 21.4911 32.1088 21.6666 31.6667 21.6666Z"
        fill="#AE1414" />
    <path
        d="M32.9 15H7.10005C6.83892 14.999 6.58168 14.9366 6.34908 14.8179C6.11648 14.6992 5.91503 14.5275 5.76096 14.3167C5.60688 14.1059 5.50451 13.8618 5.46208 13.6041C5.41966 13.3464 5.43837 13.0824 5.51671 12.8333C7.25005 7.24998 13.2 3.33331 20 3.33331C26.8 3.33331 32.75 7.24998 34.4834 12.8333C34.5642 13.0892 34.582 13.3609 34.5353 13.6252C34.4886 13.8895 34.3787 14.1386 34.2151 14.3513C34.0514 14.564 33.8389 14.7341 33.5954 14.847C33.3519 14.96 33.0848 15.0124 32.8167 15H32.9ZM9.71671 11.6666H30.2834C29.1062 10.0587 27.554 8.76265 25.7618 7.89124C23.9697 7.01984 21.9917 6.59945 20 6.66665C18.0084 6.59945 16.0304 7.01984 14.2382 7.89124C12.4461 8.76265 10.8939 10.0587 9.71671 11.6666Z"
        fill="#AE1414" />
    <path
        d="M26.6667 35H13.3333C11.1232 35 9.00358 34.122 7.44078 32.5592C5.87797 30.9964 5 28.8768 5 26.6667C5 26.2246 5.17559 25.8007 5.48816 25.4882C5.80072 25.1756 6.22464 25 6.66667 25H19.5167C19.9587 25 20.3826 25.1756 20.6952 25.4882C21.0077 25.8007 21.1833 26.2246 21.1833 26.6667C21.1833 27.1087 21.0077 27.5326 20.6952 27.8452C20.3826 28.1577 19.9587 28.3333 19.5167 28.3333H8.61667C8.96147 29.3086 9.60027 30.1529 10.445 30.7499C11.2898 31.3469 12.2989 31.6672 13.3333 31.6667H26.6667C27.7011 31.6672 28.7102 31.3469 29.555 30.7499C30.3997 30.1529 31.0385 29.3086 31.3833 28.3333H26.1833C25.7413 28.3333 25.3174 28.1577 25.0048 27.8452C24.6923 27.5326 24.5167 27.1087 24.5167 26.6667C24.5167 26.2246 24.6923 25.8007 25.0048 25.4882C25.3174 25.1756 25.7413 25 26.1833 25H33.3333C33.7754 25 34.1993 25.1756 34.5118 25.4882C34.8244 25.8007 35 26.2246 35 26.6667C35 28.8768 34.122 30.9964 32.5592 32.5592C30.9964 34.122 28.8768 35 26.6667 35Z"
        fill="#AE1414" />
</svg>