<svg width="40" height="40" viewBox="0 0 40 40" fill="none" xmlns="http://www.w3.org/2000/svg">
<path d="M20.0001 38.3334C23.6261 38.3334 27.1706 37.2581 30.1855 35.2436C33.2004 33.2291 35.5503 30.3659 36.9379 27.0159C38.3255 23.6659 38.6885 19.9797 37.9811 16.4234C37.2737 12.8671 35.5277 9.60037 32.9637 7.0364C30.3997 4.47244 27.1331 2.72636 23.5767 2.01897C20.0204 1.31157 16.3342 1.67463 12.9842 3.06224C9.63424 4.44984 6.77096 6.79967 4.75647 9.81457C2.74198 12.8295 1.66675 16.374 1.66675 20C1.67248 24.8606 3.60587 29.5204 7.04279 32.9573C10.4797 36.3942 15.1395 38.3276 20.0001 38.3334ZM20.0001 5.00003C22.9668 5.00003 25.8669 5.87976 28.3336 7.52798C30.8004 9.17621 32.723 11.5189 33.8583 14.2598C34.9936 17.0007 35.2906 20.0167 34.7119 22.9264C34.1331 25.8361 32.7045 28.5088 30.6067 30.6066C28.5089 32.7044 25.8362 34.133 22.9264 34.7118C20.0167 35.2906 17.0007 34.9935 14.2598 33.8582C11.5189 32.7229 9.17626 30.8003 7.52804 28.3336C5.87982 25.8668 5.00008 22.9667 5.00008 20C5.00449 16.0231 6.58626 12.2104 9.39835 9.3983C12.2104 6.58621 16.0232 5.00444 20.0001 5.00003ZM13.8217 23.8217L17.6434 20L13.8217 16.1784C13.5182 15.864 13.3502 15.443 13.354 15.006C13.3578 14.569 13.533 14.151 13.8421 13.842C14.1511 13.533 14.5691 13.3577 15.0061 13.3539C15.4431 13.3501 15.8641 13.5181 16.1784 13.8217L20.0001 17.6434L23.8217 13.8217C24.1361 13.5181 24.5571 13.3501 24.9941 13.3539C25.4311 13.3577 25.8491 13.533 26.1581 13.842C26.4671 14.151 26.6424 14.569 26.6462 15.006C26.65 15.443 26.482 15.864 26.1784 16.1784L22.3567 20L26.1784 23.8217C26.3376 23.9754 26.4646 24.1593 26.5519 24.3627C26.6393 24.566 26.6852 24.7847 26.6872 25.006C26.6891 25.2273 26.6469 25.4468 26.5631 25.6516C26.4793 25.8564 26.3556 26.0425 26.1991 26.199C26.0426 26.3555 25.8565 26.4793 25.6517 26.5631C25.4468 26.6469 25.2274 26.689 25.0061 26.6871C24.7848 26.6852 24.5661 26.6392 24.3627 26.5519C24.1594 26.4645 23.9755 26.3375 23.8217 26.1784L20.0001 22.3567L16.1784 26.1784C15.8641 26.482 15.4431 26.6499 15.0061 26.6462C14.5691 26.6424 14.1511 26.4671 13.8421 26.1581C13.533 25.849 13.3578 25.431 13.354 24.994C13.3502 24.557 13.5182 24.136 13.8217 23.8217Z" fill="#AE1414"/>
</svg>
